<svg width="46" height="33" viewBox="0 0 46 33" fill="none" xmlns="http://www.w3.org/2000/svg">
<rect width="46" height="33" rx="3.2" fill="white"/>
<mask id="mask0_2687_149651" style="mask-type:luminance" maskUnits="userSpaceOnUse" x="0" y="0" width="46" height="33">
<rect width="46" height="33" rx="3.2" fill="white"/>
</mask>
<g mask="url(#mask0_2687_149651)">
<path fill-rule="evenodd" clip-rule="evenodd" d="M0 8.8H46V0H0V8.8Z" fill="#DD172C"/>
<path fill-rule="evenodd" clip-rule="evenodd" d="M0 33H46V24.2H0V33Z" fill="#DD172C"/>
<path fill-rule="evenodd" clip-rule="evenodd" d="M0 24.2H46V8.80005H0V24.2Z" fill="#FFD133"/>
<path fill-rule="evenodd" clip-rule="evenodd" d="M12.0479 15.4H14.2383V16.5H12.0479V15.4Z" fill="#FFEDB1"/>
<path d="M10.4688 14.8333H13.627C13.9388 14.8333 14.1838 15.0997 14.1582 15.4104L13.8691 18.8987C13.8003 19.7282 13.1068 20.3665 12.2744 20.3665H11.8213C10.9889 20.3665 10.2954 19.7282 10.2266 18.8987L9.93652 15.4104C9.911 15.0997 10.157 14.8333 10.4688 14.8333Z" stroke="#A41517" stroke-width="1.06667"/>
<path fill-rule="evenodd" clip-rule="evenodd" d="M9.85693 16.5H14.2379V17.6H13.1426L12.0474 19.8L10.9522 17.6H9.85693V16.5Z" fill="#A41517"/>
<rect x="6.57129" y="13.2" width="2.19048" height="7.7" rx="1.06667" fill="#A41517"/>
<rect x="15.3335" y="13.2" width="2.19048" height="7.7" rx="1.06667" fill="#A41517"/>
<path d="M9.85693 12.76C9.85693 11.788 10.6449 11 11.6169 11H12.4779C13.4499 11 14.2379 11.788 14.2379 12.76C14.2379 13.003 14.0409 13.2 13.7979 13.2H10.2969C10.0539 13.2 9.85693 13.003 9.85693 12.76Z" fill="#A41517"/>
</g>
</svg>
