<svg width="46" height="33" viewBox="0 0 46 33" fill="none" xmlns="http://www.w3.org/2000/svg">
<rect width="46" height="33" rx="3.2" fill="white"/>
<mask id="mask0_2687_149845" style="mask-type:luminance" maskUnits="userSpaceOnUse" x="0" y="0" width="46" height="33">
<rect width="46" height="33" rx="3.2" fill="white"/>
</mask>
<g mask="url(#mask0_2687_149845)">
<rect width="46" height="33" fill="#0A17A7"/>
<path d="M20.248 0.826172C20.248 1.16988 20.082 1.49301 19.8027 1.69336L12.5811 6.87305V8.55469L19.3203 14.3574C19.9504 14.8998 19.5667 15.9336 18.7354 15.9336C18.548 15.9335 18.3651 15.8748 18.2129 15.7656L10.7822 10.4336H8.91504L0.283203 15.8516L-0.533203 16.3643V14.0264L-0.310547 13.8662L7.13379 8.52441V6.84473L-0.347656 0.404297L-1.43652 -0.533203H1.2666L1.40625 -0.433594L8.93457 4.9668H10.7979L19.4307 -0.452148L20.248 -0.964844V0.826172Z" fill="#FF2E3B" stroke="white" stroke-width="1.06667"/>
<path fill-rule="evenodd" clip-rule="evenodd" d="M0 5.5V9.9H7.66667V15.4333C7.66667 16.0224 8.14423 16.5 8.73333 16.5H10.981C11.5701 16.5 12.0476 16.0224 12.0476 15.4333V9.9H19.7429C20.332 9.9 20.8095 9.42244 20.8095 8.83333V6.56667C20.8095 5.97756 20.332 5.5 19.7429 5.5H12.0476V0H7.66667V5.5H0Z" fill="white"/>
<path fill-rule="evenodd" clip-rule="evenodd" d="M0 6.6H8.7619V5.5V0H10.9524V5.5V6.6H19.7143V8.8H10.9524V9.9V15.4H8.7619V9.9V8.8H0V6.6Z" fill="#FF2E3B"/>
<path fill-rule="evenodd" clip-rule="evenodd" d="M32.857 28.6L31.3081 29.0557L31.7617 27.5L31.3081 25.9444L32.857 26.4L34.4059 25.9444L33.9522 27.5L34.4059 29.0557L32.857 28.6Z" fill="#CA1931"/>
<path fill-rule="evenodd" clip-rule="evenodd" d="M32.857 7.6999L31.3081 8.15554L31.7617 6.5999L31.3081 5.04427L32.857 5.4999L34.4059 5.04427L33.9522 6.5999L34.4059 8.15554L32.857 7.6999Z" fill="#CA1931"/>
<path fill-rule="evenodd" clip-rule="evenodd" d="M39.4288 14.3L37.8799 14.7556L38.3335 13.2L37.8799 11.6444L39.4288 12.1L40.9777 11.6444L40.524 13.2L40.9777 14.7556L39.4288 14.3Z" fill="#CA1931"/>
<path fill-rule="evenodd" clip-rule="evenodd" d="M26.2857 16.5L24.7368 16.9556L25.1905 15.4L24.7368 13.8443L26.2857 14.3L27.8346 13.8443L27.3809 15.4L27.8346 16.9556L26.2857 16.5Z" fill="#CA1931"/>
</g>
</svg>
